<svg id="Layer_1" data-name="Layer 1" xmlns="http://www.w3.org/2000/svg" xmlns:xlink="http://www.w3.org/1999/xlink" viewBox="0 0 100 32"><defs><style>.cls-1{fill:#fff;}.cls-2{fill:#ffc53a;}.cls-3{fill:#253b81;}</style></defs><title>Artboard 1</title><g id="Layer_2" data-name="Layer 2"><rect class="cls-1" width="100" height="32"/></g><g id="Layer_1-2" data-name="Layer 1"><path class="cls-2" d="M88,32H12A12,12,0,0,1,0,20V12A12,12,0,0,1,12,0H88a12,12,0,0,1,12,12v8A12,12,0,0,1,88,32Z"/><path class="cls-3" d="M66.7,6a1.05,1.05,0,0,1,.9.5h0l.2-.4h.9l-.8,4.1H67V9.7h0a1.76,1.76,0,0,1-1.3.6c-.7,0-1.1-.5-1.1-1.5A2.53,2.53,0,0,1,66.7,6ZM67,8.8l.3-1.4a.6.6,0,0,0-.5-.4c-.6,0-1.1.7-1.1,1.7,0,.5.2.7.5.7A1.07,1.07,0,0,0,67,8.8Z"/><path class="cls-3" d="M69.4,6.1h.9v.5h0A2.55,2.55,0,0,1,71.6,6a.81.81,0,0,1,.9.7A2.57,2.57,0,0,1,74,6a.9.9,0,0,1,1,1,1.27,1.27,0,0,1-.1.6l-.5,2.5H73.3l.5-2.4c0-.2.1-.3.1-.4,0-.3-.1-.4-.4-.4s-.4.2-.8.5L72,10.2H70.9l.5-2.4c0-.2.1-.3.1-.4,0-.3-.1-.4-.4-.4a1.46,1.46,0,0,0-.8.5l-.5,2.7H68.7Z"/><path class="cls-3" d="M75.2,8.6A2.47,2.47,0,0,1,77.5,6,1.53,1.53,0,0,1,79,7.7a2.47,2.47,0,0,1-2.3,2.6A1.53,1.53,0,0,1,75.2,8.6Zm1.1,0c0,.5.2.8.6.8s1-.7,1-1.7c0-.5-.2-.8-.6-.8S76.3,7.6,76.3,8.6Z"/><path class="cls-3" d="M82.5,10.2h-.9V9.7h0a2.23,2.23,0,0,1-1.3.6.9.9,0,0,1-1-1,1.27,1.27,0,0,1,.1-.6l.5-2.5H81l-.5,2.4c0,.2-.1.3-.1.4,0,.3.1.4.4.4a1.46,1.46,0,0,0,.8-.5l.5-2.7h1.1Z"/><path class="cls-3" d="M84.1,6.1H85v.5h0A2.51,2.51,0,0,1,86.4,6a.9.9,0,0,1,1,1,1.27,1.27,0,0,1-.1.6l-.5,2.5H85.7l.5-2.4c0-.2.1-.3.1-.4,0-.3-.1-.4-.4-.4s-.5.2-.9.5l-.5,2.7H83.4Z"/><path class="cls-3" d="M88.3,7h-.5l.2-.8h.6l.3-1.1h.9l-.2,1.1h.9l-.1.8h-.9l-.4,1.7V9c0,.3.1.4.4.4a.37.37,0,0,0,.3-.1l.2.8a2,2,0,0,1-.9.2c-.8,0-1.2-.4-1.2-1.1a.9.9,0,0,1,.1-.5Z"/><path class="cls-3" d="M66.2,16.8a2.47,2.47,0,0,1,2.3-2.6,1.61,1.61,0,0,1,1.6,1.7,2.47,2.47,0,0,1-2.3,2.6A1.55,1.55,0,0,1,66.2,16.8Zm1.1,0c0,.5.2.8.6.8s1-.7,1-1.7c0-.5-.2-.8-.6-.8S67.3,15.8,67.3,16.8Z"/><path class="cls-3" d="M70.6,14.4h.5v-.3c.2-.8.6-1.5,1.6-1.5a2.92,2.92,0,0,1,.9.2l-.4.8c-.1-.1-.2-.1-.4-.1s-.5.1-.6.6l-.1.3h.7l-.2.9H72l-.6,3.2H70.3l.6-3.2h-.5Z"/><path class="cls-3" d="M74,19.1a.94.94,0,0,0,.8-.6l.1-.2-.7-4h1.1l.2,1.8c0,.4.1.8.1,1.2h0a10.41,10.41,0,0,0,.5-1.2l.8-1.8H78l-2.2,4.1c-.6,1-1.1,1.5-1.9,1.5a2.07,2.07,0,0,1-.6-.2l.3-.8C73.8,19,73.9,19.1,74,19.1Z"/><path class="cls-3" d="M77.6,16.8a2.47,2.47,0,0,1,2.3-2.6,1.61,1.61,0,0,1,1.6,1.7,2.47,2.47,0,0,1-2.3,2.6A1.61,1.61,0,0,1,77.6,16.8Zm1.2,0c0,.5.2.8.6.8s1-.7,1-1.7c0-.5-.2-.8-.6-.8C79.2,15.1,78.8,15.8,78.8,16.8Z"/><path class="cls-3" d="M85,18.4h-.9v-.5h0a2.23,2.23,0,0,1-1.3.6.9.9,0,0,1-1-1,1.27,1.27,0,0,1,.1-.6l.5-2.5h1.1L83,16.7c0,.2-.1.3-.1.4,0,.3.1.4.4.4a1.46,1.46,0,0,0,.8-.5l.5-2.7h1.1Z"/><path class="cls-3" d="M86.5,14.3h.9v.8h0a1.7,1.7,0,0,1,1.2-.9c.2,0,.3,0,.4.1l-.4,1a.6.6,0,0,0-.4-.1c-.4,0-.7.3-1,.8l-.5,2.3H85.6Z"/><path class="cls-3" d="M69.6,22.4a1.29,1.29,0,0,1,1.1.5l-.6.7c-.2-.2-.3-.3-.5-.3-.6,0-1.2.8-1.2,1.7,0,.5.2.8.7.8a.6.6,0,0,0,.6-.3l.5.7a2.29,2.29,0,0,1-1.4.5A1.55,1.55,0,0,1,67.2,25,2.55,2.55,0,0,1,69.6,22.4Z"/><path class="cls-3" d="M71.6,20.8h1.1l-.3,1.5-.2.7h0a2.23,2.23,0,0,1,1.3-.6.9.9,0,0,1,1,1,1.27,1.27,0,0,1-.1.6l-.5,2.5H72.8l.5-2.4c0-.2.1-.3.1-.4,0-.3-.1-.4-.4-.4s-.5.2-.9.5l-.5,2.7H70.5Z"/><path class="cls-3" d="M74.7,25A2.47,2.47,0,0,1,77,22.4a1.61,1.61,0,0,1,1.6,1.7,2.47,2.47,0,0,1-2.3,2.6A1.67,1.67,0,0,1,74.7,25Zm1.2,0c0,.5.2.8.6.8s1-.7,1-1.7c0-.5-.2-.8-.6-.8C76.3,23.3,75.9,24,75.9,25Z"/><path class="cls-3" d="M79.5,22.5h1.1l-.8,4.1H78.7Zm.1-1.2a.68.68,0,0,1,.7-.7.56.56,0,0,1,.6.5.68.68,0,0,1-.7.7A.46.46,0,0,1,79.6,21.3Z"/><path class="cls-3" d="M83,22.4a1.29,1.29,0,0,1,1.1.5l-.6.7c-.2-.2-.3-.3-.5-.3-.6,0-1.2.8-1.2,1.7,0,.5.2.8.7.8a.6.6,0,0,0,.6-.3l.5.7a2.29,2.29,0,0,1-1.4.5A1.55,1.55,0,0,1,80.6,25,2.55,2.55,0,0,1,83,22.4Z"/><path class="cls-3" d="M86.1,22.4c1,0,1.3.7,1.3,1.5a1.69,1.69,0,0,1-.2.9H84.9a.87.87,0,0,0,.9,1,1.33,1.33,0,0,0,.8-.3l.4.7a2.7,2.7,0,0,1-1.5.4,1.63,1.63,0,0,1-1.7-1.7A2.44,2.44,0,0,1,86.1,22.4Zm.4,1.8v-.3c0-.3-.1-.6-.5-.6a1.13,1.13,0,0,0-1,.9Z"/></g><image width="200" height="200" transform="translate(1.67 7.16) scale(0.09 0.1)" xlink:href="../Desktop/paynow/p logo.png"/><image width="435" height="116" transform="translate(23.26 10.3) scale(0.09 0.12)" xlink:href="../Desktop/paynow/paynow.png"/></svg>